<svg xmlns="http://www.w3.org/2000/svg" viewBox="0 0 250 250"><defs><style>.cls-1{fill:#2479bf;}.cls-2{fill:#fff;}</style></defs><title>typescript-rounded</title><g id="Layer_2" data-name="Layer 2"><g id="Layer_1-2" data-name="Layer 1"><circle class="cls-1" cx="125" cy="125" r="125"/><path class="cls-2" d="M37.64,78.84V89h32.5v92.5H93.2V89h32.5V79c0-5.62,0-10.18-.25-10.31,0-.19-19.81-.25-43.88-.25l-43.75.19V78.9l-.18-.06ZM183.7,68.4a30.2,30.2,0,0,1,15.62,8.94c2.32,2.5,5.75,6.87,6,8,0,.37-10.81,7.68-17.37,11.75-.25.18-1.25-.88-2.25-2.5-3.25-4.63-6.56-6.63-11.75-7-7.5-.5-12.5,3.43-12.5,10a9.89,9.89,0,0,0,1.12,4.75c1.69,3.43,4.82,5.5,14.5,9.75,17.88,7.68,25.63,12.75,30.32,20,5.31,8.12,6.5,20.87,2.93,30.43-4,10.44-13.75,17.5-27.68,19.82-4.38.75-14.38.62-19.07-.19-10-1.88-19.56-6.88-25.43-13.31-2.32-2.5-6.75-9.19-6.5-9.63l2.37-1.5,9.38-5.44,7.06-4.12,1.62,2.19a34.07,34.07,0,0,0,9.38,9.12c8.12,4.19,19,3.63,24.37-1.25a9.34,9.34,0,0,0,3.32-7.5,9.62,9.62,0,0,0-1.88-6.37c-2-2.75-6-5-17.25-10-12.94-5.5-18.44-9-23.56-14.38a35.45,35.45,0,0,1-6.88-12.5c-.93-3.62-1.25-12.5-.37-16.06,2.69-12.5,12.12-21.25,25.62-23.75,4.38-.88,14.69-.5,19,.62l-.12.13Z"/></g></g></svg>